<?xml version="1.0" standalone="no"?>
<!DOCTYPE svg PUBLIC "-//W3C//DTD SVG 20010904//EN"
 "http://www.w3.org/TR/2001/REC-SVG-20010904/DTD/svg10.dtd">
<svg version="1.0" xmlns="http://www.w3.org/2000/svg"
 width="50.000000pt" height="50.000000pt" viewBox="0 0 50.000000 50.000000"
 preserveAspectRatio="xMidYMid meet">

<g transform="translate(0.000000,50.000000) scale(0.100000,-0.100000)"
fill="#000000" stroke="none">
<path d="M96 454 c-22 -21 -20 -47 4 -69 18 -16 20 -31 20 -127 0 -87 3 -108
14 -108 8 0 17 9 21 19 7 22 38 36 117 51 44 9 63 19 83 41 14 17 25 36 25 42
0 6 10 21 21 33 26 27 20 69 -11 79 -55 17 -90 -37 -51 -79 19 -20 20 -27 10
-49 -13 -29 -38 -40 -119 -57 -30 -6 -62 -18 -72 -27 -17 -15 -18 -12 -18 74
0 77 3 92 20 108 11 10 20 26 20 36 0 23 -26 49 -50 49 -10 0 -26 -7 -34 -16z"/>
<path d="M96 114 c-31 -30 -9 -84 34 -84 24 0 50 26 50 50 0 24 -26 50 -50 50
-10 0 -26 -7 -34 -16z"/>
</g>
</svg>
