<?xml version="1.0" standalone="no"?>
<!DOCTYPE svg PUBLIC "-//W3C//DTD SVG 20010904//EN"
 "http://www.w3.org/TR/2001/REC-SVG-20010904/DTD/svg10.dtd">
<svg version="1.0" xmlns="http://www.w3.org/2000/svg"
 width="50.000000pt" height="50.000000pt" viewBox="0 0 50.000000 50.000000"
 preserveAspectRatio="xMidYMid meet">

<g transform="translate(0.000000,50.000000) scale(0.100000,-0.100000)"
fill="#000000" stroke="none">
<path d="M213 463 c-18 -9 -33 -20 -33 -25 0 -5 16 -16 35 -25 33 -16 37 -16
70 0 19 9 35 20 35 25 0 7 -65 44 -73 41 -1 0 -17 -8 -34 -16z"/>
<path d="M160 406 c0 -8 -22 -27 -50 -42 -49 -26 -50 -29 -50 -72 0 -29 -5
-49 -16 -56 -14 -10 -10 -15 25 -31 39 -17 44 -17 76 -2 19 9 35 20 35 25 0
13 -68 42 -85 36 -12 -5 -15 2 -15 27 0 29 6 37 40 56 37 20 40 20 40 3 0 -15
57 -60 76 -60 2 0 4 19 4 43 0 40 -3 45 -40 66 -32 18 -40 19 -40 7z"/>
<path d="M298 398 c-35 -20 -38 -26 -38 -65 0 -24 2 -43 4 -43 19 0 76 45 76
60 0 17 3 17 40 -3 34 -19 40 -27 40 -56 0 -25 -3 -32 -15 -27 -17 6 -85 -23
-85 -36 0 -5 16 -16 35 -25 33 -16 37 -16 70 0 33 16 47 37 25 37 -5 0 -10 22
-10 48 0 48 -1 49 -49 76 -27 14 -51 33 -53 41 -2 11 -10 10 -40 -7z"/>
<path d="M20 167 c0 -41 3 -47 36 -66 19 -12 37 -21 40 -21 2 0 4 19 4 43 0
40 -3 45 -40 66 l-40 22 0 -44z"/>
<path d="M158 188 c-34 -20 -38 -26 -37 -62 0 -40 1 -42 65 -74 l64 -32 64 32
c64 32 65 34 65 74 1 37 -2 42 -39 63 l-40 22 0 -44 c0 -35 5 -48 22 -59 21
-14 21 -15 -25 -40 l-47 -27 -46 26 c-46 26 -46 26 -25 43 18 13 22 24 19 58
l-3 41 -37 -21z"/>
<path d="M438 188 c-35 -20 -38 -26 -38 -65 0 -24 2 -43 4 -43 3 0 21 9 40 21
33 19 36 25 36 65 0 24 -1 44 -2 44 -2 0 -20 -10 -40 -22z"/>
</g>
</svg>
