<?xml version="1.0" standalone="no"?>
<!DOCTYPE svg PUBLIC "-//W3C//DTD SVG 20010904//EN"
 "http://www.w3.org/TR/2001/REC-SVG-20010904/DTD/svg10.dtd">
<svg version="1.0" xmlns="http://www.w3.org/2000/svg"
 width="30.000000pt" height="30.000000pt" viewBox="0 0 30.000000 30.000000"
 preserveAspectRatio="xMidYMid meet">

<g transform="translate(0.000000,30.000000) scale(0.100000,-0.100000)"
fill="#000000" stroke="none">
<path d="M75 251 c-19 -11 -32 -28 -36 -49 -6 -29 -4 -32 18 -32 20 0 23 4 21
28 -2 19 2 27 12 27 8 0 15 -6 14 -12 -1 -7 -2 -24 -2 -38 -2 -22 -6 -25 -43
-25 -35 0 -40 -3 -34 -17 4 -10 11 -29 16 -43 12 -31 55 -64 75 -56 7 3 14 17
14 31 0 22 -4 25 -27 23 -20 -2 -28 2 -28 12 0 10 8 14 28 12 l28 -3 -3 77
c-2 43 -7 79 -13 80 -5 1 -23 -5 -40 -15z"/>
<path d="M157 263 c-4 -3 -7 -17 -7 -30 0 -20 4 -23 28 -21 19 2 27 -2 27 -12
0 -10 -8 -14 -27 -12 l-28 3 0 -76 c0 -88 11 -100 60 -63 l32 23 -30 3 c-23 2
-31 9 -35 30 -3 15 -2 31 3 36 13 14 31 -4 25 -25 -9 -28 29 -25 44 4 18 34
-7 106 -45 129 -34 19 -38 20 -47 11z"/>
</g>
</svg>
