<?xml version="1.0" standalone="no"?>
<!DOCTYPE svg PUBLIC "-//W3C//DTD SVG 20010904//EN"
 "http://www.w3.org/TR/2001/REC-SVG-20010904/DTD/svg10.dtd">
<svg version="1.0" xmlns="http://www.w3.org/2000/svg"
 width="50.000000pt" height="50.000000pt" viewBox="0 0 50.000000 50.000000"
 preserveAspectRatio="xMidYMid meet">

<g transform="translate(0.000000,50.000000) scale(0.100000,-0.100000)"
fill="hsl(45, 54%, 58%)" stroke="none">
<path d="M24 447 c-2 -7 -3 -80 -2 -162 l3 -150 225 0 225 0 0 160 0 160 -223
3 c-176 2 -224 0 -228 -11z m436 -122 l0 -115 -210 0 -210 0 0 115 0 115 210
0 210 0 0 -115z m-30 -155 c0 -5 -4 -10 -10 -10 -5 0 -10 5 -10 10 0 6 5 10
10 10 6 0 10 -4 10 -10z"/>
<path d="M241 327 c-34 -90 -35 -97 -22 -97 7 0 71 155 71 173 0 4 -4 7 -9 7
-4 0 -22 -37 -40 -83z"/>
<path d="M152 350 l-23 -30 23 -30 c21 -29 38 -39 38 -21 0 5 -7 14 -15 21 -8
7 -15 20 -15 30 0 10 7 23 15 30 8 7 15 16 15 21 0 18 -17 8 -38 -21z"/>
<path d="M310 371 c0 -5 7 -14 15 -21 8 -7 15 -20 15 -30 0 -10 -7 -23 -15
-30 -8 -7 -15 -16 -15 -21 0 -18 17 -8 38 21 l23 30 -23 30 c-21 29 -38 39
-38 21z"/>
<path d="M190 101 c0 -5 -12 -11 -27 -13 -20 -2 -29 -9 -31 -25 -3 -23 -2 -23
118 -23 120 0 121 0 118 23 -2 16 -11 23 -30 25 -16 2 -28 8 -28 13 0 5 -27 9
-60 9 -33 0 -60 -4 -60 -9z"/>
</g>
</svg>
