<?xml version="1.0" standalone="no"?>
<!DOCTYPE svg PUBLIC "-//W3C//DTD SVG 20010904//EN"
 "http://www.w3.org/TR/2001/REC-SVG-20010904/DTD/svg10.dtd">
<svg version="1.0" xmlns="http://www.w3.org/2000/svg"
 width="30.000000pt" height="30.000000pt" viewBox="0 0 30.000000 30.000000"
 preserveAspectRatio="xMidYMid meet">

<g transform="translate(0.000000,30.000000) scale(0.100000,-0.100000)"
fill="hsl(45, 54%, 58%)" stroke="none">
<path d="M44 247 c-2 -7 -3 -56 -2 -108 l3 -94 105 0 105 0 0 105 0 105 -103
3 c-79 2 -104 0 -108 -11z m161 -47 c3 -5 1 -10 -4 -10 -6 0 -11 5 -11 10 0 6
2 10 4 10 3 0 8 -4 11 -10z m-51 -47 c16 -47 13 -73 -5 -40 -13 22 -28 22 -45
0 -12 -16 -13 -16 -14 -2 0 23 29 89 39 89 5 0 16 -21 25 -47z m56 -13 c0 -16
-4 -32 -10 -35 -6 -4 -10 10 -10 35 0 25 4 39 10 35 6 -3 10 -19 10 -35z"/>
<path d="M120 163 c0 -13 5 -23 10 -23 13 0 13 11 0 30 -8 12 -10 11 -10 -7z"/>
</g>
</svg>
