<?xml version="1.0" standalone="no"?>
<!DOCTYPE svg PUBLIC "-//W3C//DTD SVG 20010904//EN"
 "http://www.w3.org/TR/2001/REC-SVG-20010904/DTD/svg10.dtd">
<svg version="1.0" xmlns="http://www.w3.org/2000/svg"
 width="50.000000pt" height="50.000000pt" viewBox="0 0 50.000000 50.000000"
 preserveAspectRatio="xMidYMid meet">

<g transform="translate(0.000000,50.000000) scale(0.100000,-0.100000)"
fill="hsl(45, 54%, 58%)" stroke="none">
<path d="M222 458 c-16 -16 -15 -43 3 -58 32 -27 17 -40 -45 -40 -75 0 -110
-27 -110 -85 0 -31 -3 -35 -25 -35 -24 0 -25 -3 -25 -60 0 -57 1 -60 25 -60
23 0 25 -4 25 -45 l0 -45 180 0 180 0 0 45 c0 41 2 45 25 45 24 0 25 3 25 60
0 57 -1 60 -25 60 -22 0 -25 4 -25 35 0 58 -35 85 -110 85 -62 0 -77 13 -45
40 28 23 11 70 -25 70 -9 0 -21 -5 -28 -12z m-8 -210 c8 -14 7 -21 -6 -34 -30
-30 -75 9 -48 42 16 18 39 15 54 -8z m130 0 c8 -14 7 -21 -6 -34 -30 -30 -75
9 -48 42 16 18 39 15 54 -8z m-134 -163 c0 -28 -4 -35 -20 -35 -16 0 -20 7
-20 35 0 28 4 35 20 35 16 0 20 -7 20 -35z m60 0 c0 -28 -4 -35 -20 -35 -16 0
-20 7 -20 35 0 28 4 35 20 35 16 0 20 -7 20 -35z m60 0 c0 -28 -4 -35 -20 -35
-16 0 -20 7 -20 35 0 28 4 35 20 35 16 0 20 -7 20 -35z"/>
</g>
</svg>
