<?xml version="1.0" standalone="no"?>
<!DOCTYPE svg PUBLIC "-//W3C//DTD SVG 20010904//EN"
 "http://www.w3.org/TR/2001/REC-SVG-20010904/DTD/svg10.dtd">
<svg version="1.0" xmlns="http://www.w3.org/2000/svg"
 width="50.000000pt" height="50.000000pt" viewBox="0 0 50.000000 50.000000"
 preserveAspectRatio="xMidYMid meet">

<g transform="translate(0.000000,50.000000) scale(0.100000,-0.100000)"
fill="hsl(45, 54%, 58%)" stroke="none">
<path d="M7 464 c-4 -4 -7 -18 -7 -31 l0 -23 251 0 250 0 -3 28 -3 27 -241 3
c-132 1 -243 -1 -247 -4z"/>
<path d="M0 210 l0 -180 250 0 250 0 0 180 0 180 -250 0 -250 0 0 -180z m300
135 c0 -17 -94 -235 -101 -235 -5 0 -9 2 -9 5 0 17 94 235 101 235 5 0 9 -2 9
-5z m-130 -63 c0 -5 -11 -15 -25 -22 -14 -7 -25 -16 -25 -20 0 -4 11 -13 25
-20 23 -12 34 -30 19 -30 -11 0 -84 43 -84 50 0 7 71 49 83 50 4 0 7 -4 7 -8z
m211 -14 c22 -12 39 -25 39 -28 0 -7 -73 -50 -84 -50 -15 0 -4 18 19 30 14 7
25 16 25 20 0 4 -11 13 -25 20 -14 7 -25 17 -25 22 0 12 9 10 51 -14z"/>
</g>
</svg>
