<?xml version="1.0" standalone="no"?>
<!DOCTYPE svg PUBLIC "-//W3C//DTD SVG 20010904//EN"
 "http://www.w3.org/TR/2001/REC-SVG-20010904/DTD/svg10.dtd">
<svg version="1.0" xmlns="http://www.w3.org/2000/svg"
 width="67.000000pt" height="67.000000pt" viewBox="0 0 67.000000 67.000000"
 preserveAspectRatio="xMidYMid meet">

<g transform="translate(0.000000,67.000000) scale(0.100000,-0.100000)"
fill="#fff" stroke="none">
<path d="M103 661 c-40 -10 -60 -26 -79 -62 -11 -22 -14 -78 -14 -266 1 -258
3 -269 56 -304 27 -17 49 -19 267 -19 345 0 327 -18 327 327 0 342 13 327
-305 330 -121 1 -235 -2 -252 -6z m198 -245 l34 -94 30 82 c17 45 35 87 39 94
8 14 36 16 36 3 0 -22 -109 -294 -125 -312 -15 -16 -65 -28 -65 -15 0 2 -3 11
-6 19 -4 11 2 16 23 19 51 6 52 41 5 167 -23 62 -42 116 -42 121 0 6 9 10 19
10 15 0 26 -20 52 -94z"/>
</g>
</svg>
