<?xml version="1.0" standalone="no"?>
<!DOCTYPE svg PUBLIC "-//W3C//DTD SVG 20010904//EN"
 "http://www.w3.org/TR/2001/REC-SVG-20010904/DTD/svg10.dtd">
<svg version="1.0" xmlns="http://www.w3.org/2000/svg"
 width="100.000000pt" height="100.000000pt" viewBox="0 0 100.000000 100.000000"
 preserveAspectRatio="xMidYMid meet">

<g transform="translate(0.000000,100.000000) scale(0.100000,-0.100000)"
fill="#fff" stroke="none">
<path d="M131 906 c-49 -27 -50 -37 -51 -404 0 -372 2 -386 55 -410 41 -19
697 -17 734 2 49 26 51 41 51 406 0 365 -2 380 -51 406 -39 20 -702 20 -738 0z
m729 -46 c19 -19 20 -33 20 -360 0 -327 -1 -341 -20 -360 -19 -19 -33 -20
-360 -20 -327 0 -341 1 -360 20 -19 19 -20 33 -20 360 0 327 1 341 20 360 19
19 33 20 360 20 327 0 341 -1 360 -20z"/>
<path d="M400 641 c0 -10 9 -76 20 -146 20 -135 19 -146 -23 -193 -11 -12 -29
-22 -39 -22 -12 0 -18 -7 -18 -21 0 -19 4 -21 32 -15 51 10 37 -10 257 364
l30 52 -23 0 c-20 0 -35 -20 -92 -117 -77 -132 -74 -133 -94 20 -12 82 -16 97
-32 97 -11 0 -18 -7 -18 -19z"/>
</g>
</svg>
